<svg aria-hidden="true" style="position: absolute; width: 0; height: 0; overflow: hidden;" version="1.1" xmlns="http://www.w3.org/2000/svg" xmlns:xlink="http://www.w3.org/1999/xlink">
<defs>
  <symbol id="chevron_right" viewBox="0 0 32 32">
    <title>chevron_right</title>
    <path d="M13.333 8l-1.88 1.88 6.107 6.12-6.107 6.12 1.88 1.88 8-8z"></path>
  </symbol>

  <symbol id="copyright" viewBox="0 0 32 32">
    <title>copyright</title>
    <path d="M13.44 14.48c0.067-0.44 0.213-0.827 0.4-1.16s0.453-0.613 0.787-0.827c0.32-0.2 0.72-0.293 1.213-0.307 0.307 0.013 0.587 0.067 0.84 0.173 0.267 0.12 0.507 0.28 0.693 0.48s0.333 0.44 0.453 0.707 0.173 0.56 0.187 0.853h2.387c-0.027-0.627-0.147-1.2-0.373-1.72s-0.533-0.973-0.933-1.347-0.88-0.667-1.44-0.88-1.173-0.307-1.853-0.307c-0.867 0-1.627 0.147-2.267 0.453s-1.173 0.707-1.6 1.227-0.747 1.12-0.947 1.813-0.32 1.413-0.32 2.187v0.36c0 0.773 0.107 1.493 0.307 2.187s0.52 1.293 0.947 1.8 0.96 0.92 1.6 1.213 1.4 0.453 2.267 0.453c0.627 0 1.213-0.107 1.76-0.307s1.027-0.48 1.44-0.84 0.747-0.773 0.987-1.253 0.387-0.987 0.4-1.533h-2.387c-0.013 0.28-0.080 0.533-0.2 0.773s-0.28 0.44-0.48 0.613-0.427 0.307-0.693 0.4c-0.253 0.093-0.52 0.12-0.8 0.133-0.48-0.013-0.88-0.107-1.187-0.307-0.333-0.213-0.6-0.493-0.787-0.827s-0.333-0.733-0.4-1.173-0.107-0.893-0.107-1.333v-0.36c0-0.467 0.040-0.907 0.107-1.347zM16 2.667c-7.36 0-13.333 5.973-13.333 13.333s5.973 13.333 13.333 13.333 13.333-5.973 13.333-13.333-5.973-13.333-13.333-13.333zM16 26.667c-5.88 0-10.667-4.787-10.667-10.667s4.787-10.667 10.667-10.667 10.667 4.787 10.667 10.667-4.787 10.667-10.667 10.667z"></path>
    </symbol>

    <symbol id="facebook" viewBox="0 0 32 32">
    <title>facebook</title>
    <path d="M18 11v-4c0-1.104 0.896-2 2-2h2v-5h-4c-3.314 0-6 2.686-6 6v5h-4v5h4v16h6v-16h4l2-5h-6z"></path>
  </symbol>

  <symbol id="github" viewBox="0 0 32 32">
    <title>github</title>
    <path d="M16 0c-8.788 0-16 7.212-16 16 0 7.499 5.262 14.312 12.25 16v-5.293c-0.692 0.152-1.33 0.156-2.034-0.052-0.946-0.279-1.714-0.909-2.284-1.869-0.364-0.613-1.008-1.278-1.68-1.23l-0.165-1.868c1.453-0.125 2.711 0.886 3.457 2.139 0.332 0.558 0.713 0.885 1.203 1.029 0.473 0.139 0.982 0.073 1.574-0.137 0.149-1.186 0.692-1.63 1.102-2.255v-0.001c-4.167-0.622-5.828-2.833-6.488-4.578-0.874-2.317-0.405-5.212 1.14-7.041 0.030-0.036 0.084-0.129 0.063-0.194-0.708-2.139 0.155-3.909 0.187-4.097 0.817 0.242 0.95-0.243 3.551 1.337l0.449 0.27c0.188 0.112 0.129 0.048 0.317 0.034 1.086-0.295 2.23-0.458 3.358-0.472 1.136 0.015 2.273 0.178 3.404 0.484l0.145 0.015c-0.013-0.002 0.040-0.009 0.127-0.062 3.248-1.968 3.132-1.324 4.003-1.608 0.032 0.188 0.883 1.987 0.182 4.099-0.094 0.291 2.816 2.956 1.203 7.235-0.659 1.746-2.32 3.957-6.487 4.578v0.001c0.534 0.814 1.176 1.247 1.173 2.927v6.608c6.988-1.688 12.25-8.501 12.25-16 0-8.788-7.212-16-16-16z"></path>
  </symbol>

  <symbol id="home-24px" viewBox="0 0 32 32">
    <title>home</title>
    <path d="M13.333 26.667v-8h5.333v8h6.667v-10.667h4l-13.333-12-13.333 12h4v10.667z"></path>
  </symbol>

  <symbol id="telegram" viewBox="0 0 32 32">
    <title>telegram</title>
    <path d="M7.7 18.234l3.98 9.949 5.181-5.181 8.884 7.061 6.255-28.125-32 13.329zM22.856 10.007l-9.795 8.934-1.22 4.598-2.254-5.635z"></path>
  </symbol>
  
</defs>
</svg>
