<svg aria-hidden="true" style="position:absolute" xmlns="http://www.w3.org/2000/svg" overflow="hidden"><defs><symbol id="chevron_right" viewBox="0 0 32 32"><path d="M13.333 8l-1.88 1.88L17.56 16l-6.107 6.12 1.88 1.88 8-8z"/></symbol><symbol id="copyright" viewBox="0 0 32 32"><path d="M13.44 14.48c.067-.44.213-.827.4-1.16s.453-.613.787-.827c.32-.2.72-.293 1.213-.307.307.013.587.067.84.173.267.12.507.28.693.48s.333.44.453.707.173.56.187.853H20.4c-.027-.627-.147-1.2-.373-1.72s-.533-.973-.933-1.347-.88-.667-1.44-.88-1.173-.307-1.853-.307c-.867 0-1.627.147-2.267.453s-1.173.707-1.6 1.227-.747 1.12-.947 1.813-.32 1.413-.32 2.187v.36c0 .773.107 1.493.307 2.187s.52 1.293.947 1.8.96.92 1.6 1.213 1.4.453 2.267.453c.627 0 1.213-.107 1.76-.307s1.027-.48 1.44-.84.747-.773.987-1.253.387-.987.4-1.533h-2.387c-.013.28-.08.533-.2.773s-.28.44-.48.613-.427.307-.693.4c-.253.093-.52.12-.8.133-.48-.013-.88-.107-1.187-.307-.333-.213-.6-.493-.787-.827s-.333-.733-.4-1.173-.107-.893-.107-1.333v-.36c0-.467.04-.907.107-1.347zM16 2.667C8.64 2.667 2.667 8.64 2.667 16S8.64 29.333 16 29.333 29.333 23.36 29.333 16 23.36 2.667 16 2.667zm0 24C10.12 26.667 5.333 21.88 5.333 16S10.12 5.333 16 5.333 26.667 10.12 26.667 16 21.88 26.667 16 26.667z"/></symbol><symbol id="facebook" viewBox="0 0 32 32"><path d="M18 11V7a2 2 0 012-2h2V0h-4a6 6 0 00-6 6v5H8v5h4v16h6V16h4l2-5h-6z"/></symbol><symbol id="github" viewBox="0 0 32 32"><path d="M16 0C7.212 0 0 7.212 0 16c0 7.499 5.262 14.312 12.25 16v-5.293c-.692.152-1.33.156-2.034-.052-.946-.279-1.714-.909-2.284-1.869-.364-.613-1.008-1.278-1.68-1.23l-.165-1.868c1.453-.125 2.711.886 3.457 2.139.332.558.713.885 1.203 1.029.473.139.982.073 1.574-.137.149-1.186.692-1.63 1.102-2.255v-.001c-4.167-.622-5.828-2.833-6.488-4.578-.874-2.317-.405-5.212 1.14-7.041.03-.036.084-.129.063-.194-.708-2.139.155-3.909.187-4.097.817.242.95-.243 3.551 1.337l.449.27c.188.112.129.048.317.034A13.544 13.544 0 0116 7.722c1.136.015 2.273.178 3.404.484l.145.015c-.013-.002.04-.009.127-.062 3.248-1.968 3.132-1.324 4.003-1.608.032.188.883 1.987.182 4.099-.094.291 2.816 2.956 1.203 7.235-.659 1.746-2.32 3.957-6.487 4.578v.001c.534.814 1.176 1.247 1.173 2.927v6.608c6.988-1.688 12.25-8.501 12.25-16 0-8.788-7.212-16-16-16z"/></symbol><symbol id="home-24px" viewBox="0 0 32 32"><path d="M13.333 26.667v-8h5.333v8h6.667V16h4L16 4 2.667 16h4v10.667z"/></symbol><symbol id="telegram" viewBox="0 0 32 32"><path d="M7.7 18.234l3.98 9.949 5.181-5.181 8.884 7.061L32 1.938 0 15.267zm15.156-8.227l-9.795 8.934-1.22 4.598-2.254-5.635z"/></symbol></defs></svg>